<svg version="1.1" id="Layer_1" xmlns="http://www.w3.org/2000/svg" xmlns:xlink="http://www.w3.org/1999/xlink" x="0px" y="0px"
	 width="100%" viewBox="0 0 500 500" enable-background="new 0 0 500 500" xml:space="preserve">
<path fill="#F366BA" opacity="1.000000" stroke="none" 
	d="
M268.000000,0.999999 
	C270.370575,1.000000 272.741119,1.000000 275.724548,1.356137 
	C280.847534,2.473762 285.351501,3.274037 289.868774,3.990580 
	C324.903259,9.547846 357.430481,21.750280 387.216217,41.032677 
	C411.032990,56.450947 431.903351,75.143883 449.056030,98.209480 
	C450.457794,100.330399 451.867889,102.083298 453.240540,103.824265 
	C453.203064,103.812332 453.241974,103.743973 453.236450,104.109993 
	C458.845520,114.111038 464.422760,123.768364 470.140411,133.341843 
	C470.636810,134.173004 472.058990,134.451263 473.120178,135.099792 
	C473.189209,135.213242 473.152191,135.476227 473.235901,135.767593 
	C473.571167,136.367615 473.822754,136.676285 474.041870,136.981781 
	C474.009460,136.978607 474.051453,136.928787 474.032959,137.316193 
	C475.038086,139.450729 476.061707,141.197845 477.051788,142.973389 
	C477.018250,143.001801 477.063721,142.926773 477.040466,143.345337 
	C477.135834,145.241074 476.912445,146.852158 477.429779,148.173187 
	C480.296753,155.494354 483.290924,162.767746 486.397980,169.990189 
	C486.775940,170.868790 488.093201,171.343307 488.993042,172.007507 
	C489.010986,172.009903 488.985931,172.036163 488.975586,172.451126 
	C490.426819,180.949570 491.749908,189.061478 493.401001,197.106049 
	C494.414490,202.044144 495.960358,206.871445 497.211975,211.762634 
	C498.509369,216.832870 499.740112,221.920166 501.000000,227.000000 
	C501.000000,245.354233 501.000000,263.708466 500.695557,282.767914 
	C499.837067,286.580170 499.280548,289.686798 498.729248,292.794312 
	C487.987183,353.344482 459.302032,403.660980 412.473511,443.526215 
	C405.311035,449.623657 397.551208,455.019440 389.601807,461.095856 
	C382.988953,442.273285 373.092224,426.590027 361.189148,411.828003 
	C361.368378,375.725067 361.368378,340.004456 361.368378,304.460236 
	C374.182312,302.106750 383.013977,296.890472 386.527069,289.744598 
	C376.548126,289.067780 368.440613,285.333008 363.905853,275.613464 
	C366.463440,269.177612 369.697510,263.286591 371.311157,256.980896 
	C373.696472,247.659882 371.268341,234.871002 361.397888,231.961700 
	C361.615143,217.724457 362.651825,203.858398 361.782654,190.112823 
	C360.221252,165.419785 349.810547,145.005035 329.293549,130.369049 
	C312.351501,118.283287 293.139679,114.743904 272.838226,115.788673 
	C268.729797,116.000107 266.383759,115.861076 265.096100,110.911827 
	C262.933411,102.599365 258.266968,99.437462 249.638840,99.958588 
	C242.031097,100.418083 234.299255,101.212357 226.949020,103.118820 
	C199.755737,110.172035 176.872086,123.836441 161.648804,148.270035 
	C150.376404,166.362411 147.874771,186.506500 148.337357,207.312027 
	C148.518768,215.470505 148.327545,223.637238 147.959824,231.961639 
	C137.288437,234.144012 134.587860,244.556046 135.443069,253.260391 
	C136.537918,264.404022 142.085159,273.631744 148.884430,282.445618 
	C148.625214,283.457764 148.488602,284.113586 148.488312,284.769470 
	C148.470901,323.724701 148.460693,362.679932 148.477615,401.635162 
	C148.478104,402.767670 148.776550,403.900055 148.799286,405.333252 
	C132.922775,421.195801 121.525177,439.574829 113.121880,461.772736 
	C100.633568,451.219391 88.216599,441.912933 77.180519,431.185852 
	C38.384590,393.476166 14.195665,347.818695 4.837684,294.428955 
	C3.528190,286.957947 2.277766,279.476562 1.000000,272.000000 
	C1.000000,259.312439 1.000000,246.624878 1.308178,233.203491 
	C2.039977,229.005539 2.462368,225.541245 2.887404,222.077271 
	C10.159151,162.813736 35.236942,112.176102 78.183243,70.929253 
	C118.456398,32.249767 166.614655,9.288854 222.390839,2.958829 
	C223.651749,2.815728 224.799484,1.675243 226.000000,1.000000 
	C228.700012,1.000000 231.400024,1.000000 234.849655,1.295085 
	C245.007172,1.740722 254.414795,1.936508 263.823273,1.992415 
	C265.213470,2.000676 266.607666,1.347274 268.000000,0.999999 
z"/>
<path fill="#FFFEFF" opacity="0" stroke="none" 
	d="
M361.009918,412.210327 
	C373.092224,426.590027 382.988953,442.273285 389.601807,461.095856 
	C397.551208,455.019440 405.311035,449.623657 412.473511,443.526215 
	C459.302032,403.660980 487.987183,353.344482 498.729248,292.794312 
	C499.280548,289.686798 499.837067,286.580170 500.695557,283.236572 
	C501.000000,355.633087 501.000000,428.266144 501.000000,500.949615 
	C334.443970,500.949615 167.887924,500.949615 1.000000,500.949615 
	C1.000000,424.979431 1.000000,348.958374 1.000000,272.468658 
	C2.277766,279.476562 3.528190,286.957947 4.837684,294.428955 
	C14.195665,347.818695 38.384590,393.476166 77.180519,431.185852 
	C88.216599,441.912933 100.633568,451.219391 113.121880,461.772736 
	C121.525177,439.574829 132.922775,421.195801 149.086334,405.150513 
	C156.182526,399.318176 162.854904,393.969330 169.842026,388.654266 
	C171.094513,390.094940 172.032227,391.501801 172.975952,393.321045 
	C173.129288,394.717010 173.203766,395.718079 173.434753,396.681641 
	C177.327515,412.919800 186.188019,426.075836 198.521698,437.078156 
	C217.961700,454.419708 240.841415,460.054504 266.109467,456.024048 
	C280.833649,453.675476 294.068787,447.125854 305.061096,437.054108 
	C314.392883,428.503876 322.402130,418.704132 326.405518,406.005249 
	C327.387512,404.235657 328.071747,402.615295 328.811829,400.659729 
	C328.897125,399.872711 328.926544,399.420868 329.145569,398.764191 
	C329.467896,398.032196 329.600616,397.505066 329.789124,396.648254 
	C329.889679,395.875336 329.934479,395.432037 330.163422,394.780640 
	C330.466583,394.044434 330.585571,393.516327 330.755615,392.659729 
	C330.823730,391.888824 330.840820,391.446381 330.928040,390.646790 
	C331.429901,389.451477 331.861664,388.613342 332.613647,387.879578 
	C342.292542,396.059418 351.651215,404.134857 361.009918,412.210327 
z"/>
<path fill="#FFFEFE" opacity="0" stroke="none" 
	d="
M225.531342,1.000000 
	C224.799484,1.675243 223.651749,2.815728 222.390839,2.958829 
	C166.614655,9.288854 118.456398,32.249767 78.183243,70.929253 
	C35.236942,112.176102 10.159151,162.813736 2.887404,222.077271 
	C2.462368,225.541245 2.039977,229.005539 1.308178,232.734833 
	C1.000000,155.740738 1.000000,78.481483 1.000000,1.000000 
	C75.687416,1.000000 150.375046,1.000000 225.531342,1.000000 
z"/>
<path fill="#FFFEFF" opacity="0" stroke="none" 
	d="
M449.064362,97.841476 
	C431.903351,75.143883 411.032990,56.450947 387.216217,41.032677 
	C357.430481,21.750280 324.903259,9.547846 289.868774,3.990580 
	C285.351501,3.274037 280.847534,2.473762 276.168701,1.356137 
	C350.923279,1.000000 425.846558,1.000000 501.000000,1.000000 
	C501.000000,68.354050 501.000000,135.708374 500.591461,203.537872 
	C499.365479,204.054184 498.548004,204.095322 497.506439,203.813751 
	C494.516876,193.006073 491.751404,182.521118 488.985931,172.036163 
	C488.985931,172.036163 489.010986,172.009903 488.981323,171.628906 
	C484.989014,161.807541 481.026367,152.367157 477.063721,142.926773 
	C477.063721,142.926773 477.018250,143.001801 477.006561,142.627808 
	C476.013733,140.478790 475.032593,138.703796 474.051453,136.928787 
	C474.051453,136.928787 474.009460,136.978607 473.974548,136.684387 
	C473.677124,136.085510 473.414673,135.780869 473.152191,135.476227 
	C473.152191,135.476227 473.189209,135.213242 473.060730,134.745331 
	C471.119080,130.953888 469.529755,127.482117 467.447113,124.337051 
	C462.843781,117.385460 457.992249,110.598244 453.241974,103.743973 
	C453.241974,103.743973 453.203064,103.812332 453.180237,103.487122 
	C451.793060,101.388428 450.428711,99.614952 449.064362,97.841476 
z"/>
<path fill="#E381B9" opacity="0" stroke="none" 
	d="
M488.975586,172.451126 
	C491.751404,182.521118 494.516876,193.006073 497.565613,204.226242 
	C498.899292,210.974304 499.949646,216.987152 501.000000,223.000000 
	C501.000000,224.066666 501.000000,225.133347 501.000000,226.600006 
	C499.740112,221.920166 498.509369,216.832870 497.211975,211.762634 
	C495.960358,206.871445 494.414490,202.044144 493.401001,197.106049 
	C491.749908,189.061478 490.426819,180.949570 488.975586,172.451126 
z"/>
<path fill="#FFE9FC" opacity="0" stroke="none" 
	d="
M501.000000,222.531723 
	C499.949646,216.987152 498.899292,210.974304 497.789734,204.548950 
	C498.548004,204.095322 499.365479,204.054184 500.591461,204.006531 
	C501.000000,210.021149 501.000000,216.042297 501.000000,222.531723 
z"/>
<path fill="#FF97E0" opacity="1.000000" stroke="none" 
	d="
M267.531342,0.999999 
	C266.607666,1.347274 265.213470,2.000676 263.823273,1.992415 
	C254.414795,1.936508 245.007172,1.740722 235.299637,1.295085 
	C245.687561,1.000000 256.375122,1.000000 267.531342,0.999999 
z"/>
<path fill="#FAD4C0" opacity="1.000000" stroke="none" 
	d="
M361.358429,232.387161 
	C371.268341,234.871002 373.696472,247.659882 371.311157,256.980896 
	C369.697510,263.286591 366.463440,269.177612 363.604858,275.742126 
	C356.795624,284.254089 349.537842,291.261810 339.925171,295.542572 
	C338.549866,296.154968 337.833618,298.247375 336.534180,299.853333 
	C334.359955,303.260925 332.463898,306.470062 330.694031,309.767395 
	C330.820251,309.855591 330.596313,309.644226 330.342957,309.824982 
	C329.569214,310.895966 329.048798,311.786163 328.580811,312.697144 
	C328.633179,312.717926 328.585907,312.615662 328.313721,312.800354 
	C325.900024,315.847473 323.758545,318.709869 321.601135,321.588684 
	C321.585266,321.605103 321.563721,321.645355 321.307678,321.822327 
	C319.997223,323.304504 318.942841,324.609711 317.933289,325.946899 
	C317.978180,325.978912 317.914185,325.889160 317.634827,325.997009 
	C316.715942,326.863983 316.076416,327.623138 315.385010,328.401001 
	C315.333160,328.419708 315.320526,328.529205 315.061920,328.713196 
	C313.176239,330.574432 311.549164,332.251678 309.689026,334.016113 
	C309.154388,334.288483 308.970032,334.554840 308.604614,334.985779 
	C307.419769,335.922241 306.533203,336.775330 305.777466,337.798218 
	C305.908325,337.968018 305.628967,337.642303 305.318634,337.766968 
	C302.578552,339.839020 300.148804,341.786377 297.761353,343.751221 
	C297.803589,343.768646 297.785675,343.679016 297.443604,343.766388 
	C293.855408,345.650085 290.609253,347.446381 287.001648,349.229919 
	C285.498566,349.964172 284.356995,350.711182 282.964050,351.614990 
	C281.816711,352.184296 280.920654,352.596832 279.748291,353.052612 
	C279.010620,353.386230 278.549316,353.676666 277.696350,353.996613 
	C269.008270,355.351654 260.644653,358.049835 252.432861,357.647644 
	C242.652130,357.168610 233.001678,354.029572 223.044647,351.783722 
	C199.040237,339.982697 182.212311,321.531982 169.823975,298.596344 
	C169.020416,297.108673 167.515991,295.905151 166.127563,294.844330 
	C160.486511,290.534302 154.763489,286.331573 149.070679,282.089294 
	C142.085159,273.631744 136.537918,264.404022 135.443069,253.260391 
	C134.587860,244.556046 137.288437,234.144012 148.286560,232.111603 
	C150.354233,232.431396 151.748947,232.762634 152.803757,233.013153 
	C174.432007,190.764618 205.943253,162.314835 253.679840,154.584213 
	C255.921280,163.450775 257.629517,171.750000 260.121399,179.806854 
	C273.036163,221.563278 304.143707,244.543701 345.949402,243.992096 
	C351.935760,243.913101 355.218872,241.892075 356.780518,236.408646 
	C357.435883,234.107407 358.124084,231.781067 361.358429,232.387161 
M145.877563,259.397247 
	C148.287369,267.722534 152.420319,274.757690 160.328613,279.366364 
	C160.563522,278.569977 160.782776,278.237518 160.724884,277.963623 
	C158.465439,267.270599 156.166794,256.585815 153.908371,245.892578 
	C153.282043,242.927017 151.619690,243.088013 149.524414,244.300827 
	C145.350098,246.717041 144.168198,251.102020 145.877563,259.397247 
M359.779755,265.041351 
	C360.441162,259.999023 361.685333,254.931976 361.473175,249.926682 
	C361.389923,247.962021 358.046448,246.135544 356.187683,244.246124 
	C355.167572,246.178741 353.734558,248.004089 353.199768,250.062790 
	C351.034363,258.398560 349.141907,266.805267 347.157990,275.188019 
	C346.845184,276.509735 346.579834,277.842651 346.063049,280.231079 
	C352.682373,276.226044 356.396515,271.281494 359.779755,265.041351 
z"/>
<path fill="#25265D" opacity="1.000000" stroke="none" 
	d="
M361.397888,231.961700 
	C358.124084,231.781067 357.435883,234.107407 356.780518,236.408646 
	C355.218872,241.892075 351.935760,243.913101 345.949402,243.992096 
	C304.143707,244.543701 273.036163,221.563278 260.121399,179.806854 
	C257.629517,171.750000 255.921280,163.450775 253.679840,154.584213 
	C205.943253,162.314835 174.432007,190.764618 152.803757,233.013153 
	C151.748947,232.762634 150.354233,232.431396 148.632751,231.950180 
	C148.327545,223.637238 148.518768,215.470505 148.337357,207.312027 
	C147.874771,186.506500 150.376404,166.362411 161.648804,148.270035 
	C176.872086,123.836441 199.755737,110.172035 226.949020,103.118820 
	C234.299255,101.212357 242.031097,100.418083 249.638840,99.958588 
	C258.266968,99.437462 262.933411,102.599365 265.096100,110.911827 
	C266.383759,115.861076 268.729797,116.000107 272.838226,115.788673 
	C293.139679,114.743904 312.351501,118.283287 329.293549,130.369049 
	C349.810547,145.005035 360.221252,165.419785 361.782654,190.112823 
	C362.651825,203.858398 361.615143,217.724457 361.397888,231.961700 
z"/>
<path fill="#26275D" opacity="1.000000" stroke="none" 
	d="
M308.902924,334.902405 
	C308.970032,334.554840 309.154388,334.288483 310.059998,334.018982 
	C313.568024,333.297455 315.821381,332.099640 315.320526,328.529205 
	C315.320526,328.529205 315.333160,328.419708 315.722839,328.408447 
	C316.713074,327.561188 317.313629,326.725189 317.914185,325.889160 
	C317.914185,325.889160 317.978180,325.978912 318.286865,325.906647 
	C319.584930,324.438019 320.574310,323.041687 321.563721,321.645355 
	C321.563721,321.645355 321.585266,321.605103 321.962036,321.632446 
	C326.123718,319.821075 328.729614,317.167969 328.585907,312.615662 
	C328.585907,312.615662 328.633179,312.717926 328.926819,312.620911 
	C329.679108,311.563995 330.137726,310.604126 330.596313,309.644226 
	C330.596313,309.644226 330.820251,309.855591 331.041931,309.699432 
	C333.113159,306.247131 334.962769,302.950989 336.812378,299.654816 
	C337.833618,298.247375 338.549866,296.154968 339.925171,295.542572 
	C349.537842,291.261810 356.795624,284.254089 363.556580,276.101501 
	C368.440613,285.333008 376.548126,289.067780 386.527069,289.744598 
	C383.013977,296.890472 374.182312,302.106750 361.368378,304.460236 
	C361.368378,340.004456 361.368378,375.725067 361.189148,411.828003 
	C351.651215,404.134857 342.292542,396.059418 332.469971,387.595825 
	C331.091064,386.700409 330.176025,386.193115 329.251831,385.733948 
	C329.242645,385.782104 329.340637,385.781921 329.199036,385.518311 
	C328.693542,385.133545 328.329651,385.012390 327.900757,384.831055 
	C327.835785,384.770844 327.706177,384.891571 327.514404,384.597412 
	C326.902344,384.119537 326.482086,383.935760 325.948364,383.548370 
	C325.413086,383.171204 324.991211,382.997681 324.345337,382.535461 
	C312.404053,377.375519 300.686859,372.504303 288.868500,367.303650 
	C288.031738,366.373230 287.387726,365.488861 286.545807,365.216675 
	C280.597992,363.293945 279.913452,362.423950 282.017029,356.582031 
	C282.693665,354.702942 284.710968,353.146576 286.414459,351.830139 
	C290.102234,348.980286 293.983551,346.380890 297.785675,343.679016 
	C297.785675,343.679016 297.803589,343.768646 298.131104,343.763397 
	C301.560120,342.553558 305.136963,341.906281 305.628967,337.642303 
	C305.628967,337.642303 305.908325,337.968018 306.131592,337.827179 
	C307.204254,336.758362 308.053589,335.830383 308.902924,334.902405 
z"/>
<path fill="#25265C" opacity="1.000000" stroke="none" 
	d="
M148.884430,282.445618 
	C154.763489,286.331573 160.486511,290.534302 166.127563,294.844330 
	C167.515991,295.905151 169.020416,297.108673 169.823975,298.596344 
	C182.212311,321.531982 199.040237,339.982697 222.986603,352.185303 
	C223.233032,353.655396 223.287384,354.464630 223.269272,355.575684 
	C223.266830,356.489441 223.336853,357.101471 223.343369,358.123718 
	C223.427353,359.060760 223.574844,359.587494 223.642883,360.475464 
	C223.644058,361.564392 223.724686,362.292114 223.670410,363.330353 
	C223.560410,364.088684 223.585312,364.536499 223.399109,365.178406 
	C223.104599,365.544464 223.021210,365.716461 222.526428,365.930634 
	C221.316208,366.187958 220.523468,366.429535 219.717697,366.614380 
	C201.594055,370.772705 184.571381,377.439575 169.527267,388.620483 
	C162.854904,393.969330 156.182526,399.318176 149.223114,404.849762 
	C148.776550,403.900055 148.478104,402.767670 148.477615,401.635162 
	C148.460693,362.679932 148.470901,323.724701 148.488312,284.769470 
	C148.488602,284.113586 148.625214,283.457764 148.884430,282.445618 
z"/>
<path fill="#E381B9" opacity="1.000000" stroke="none" 
	d="
M453.236450,104.110001 
	C457.992249,110.598244 462.843781,117.385460 467.447113,124.337051 
	C469.529755,127.482117 471.119080,130.953888 472.991699,134.631897 
	C472.058990,134.451263 470.636810,134.173004 470.140411,133.341843 
	C464.422760,123.768364 458.845520,114.111038 453.236450,104.110001 
z"/>
<path fill="#E381B9" opacity="1.000000" stroke="none" 
	d="
M477.040466,143.345337 
	C481.026367,152.367157 484.989014,161.807541 488.963409,171.626511 
	C488.093201,171.343307 486.775940,170.868790 486.397980,169.990189 
	C483.290924,162.767746 480.296753,155.494354 477.429779,148.173187 
	C476.912445,146.852158 477.135834,145.241074 477.040466,143.345337 
z"/>
<path fill="#E381B9" opacity="1.000000" stroke="none" 
	d="
M449.056030,98.209488 
	C450.428711,99.614952 451.793060,101.388428 453.217712,103.499054 
	C451.867889,102.083298 450.457794,100.330399 449.056030,98.209488 
z"/>
<path fill="#E381B9" opacity="1.000000" stroke="none" 
	d="
M474.032959,137.316193 
	C475.032593,138.703796 476.013733,140.478790 477.040100,142.599396 
	C476.061707,141.197845 475.038086,139.450729 474.032959,137.316193 
z"/>
<path fill="#E381B9" opacity="1.000000" stroke="none" 
	d="
M473.235901,135.767593 
	C473.414673,135.780869 473.677124,136.085510 474.006958,136.687546 
	C473.822754,136.676285 473.571167,136.367615 473.235901,135.767593 
z"/>
<path fill="#FAD5C1" opacity="1.000000" stroke="none" 
	d="
M222.937836,365.888458 
	C223.021210,365.716461 223.104599,365.544464 223.591156,365.113739 
	C223.931320,364.243317 223.868332,363.631592 223.805328,363.019867 
	C223.724686,362.292114 223.644058,361.564392 223.973663,360.472168 
	C225.470016,360.501495 226.593445,360.815155 227.636734,361.300934 
	C244.514984,369.160156 261.302917,369.243835 278.207245,360.972839 
	C278.830933,361.788208 279.252625,362.401978 279.709229,363.372345 
	C279.847595,364.436035 279.951111,365.143158 280.144104,366.211609 
	C286.554932,369.024231 292.860046,371.518555 299.202759,373.913177 
	C304.251251,375.819153 309.334625,377.634827 314.423737,379.430420 
	C317.786163,380.616791 321.186188,381.696655 324.569366,382.824188 
	C324.991211,382.997681 325.413086,383.171204 326.171753,383.803223 
	C326.907776,384.471680 327.306976,384.681641 327.706177,384.891571 
	C327.706177,384.891571 327.835785,384.770844 328.089508,385.036194 
	C328.675690,385.461670 329.008179,385.621796 329.340637,385.781921 
	C329.340637,385.781921 329.242645,385.782104 329.192749,386.132812 
	C329.714569,387.990295 330.286224,389.497131 330.857910,391.003937 
	C330.840820,391.446381 330.823730,391.888824 330.536774,392.732941 
	C330.170990,393.752655 330.075134,394.370697 329.979248,394.988739 
	C329.934479,395.432037 329.889679,395.875336 329.568054,396.721436 
	C329.179474,397.739197 329.067719,398.354095 328.955963,398.969025 
	C328.926544,399.420868 328.897125,399.872711 328.518799,400.783752 
	C327.482513,402.880127 326.795135,404.517273 326.107788,406.154419 
	C322.402130,418.704132 314.392883,428.503876 305.061096,437.054108 
	C294.068787,447.125854 280.833649,453.675476 266.109467,456.024048 
	C240.841415,460.054504 217.961700,454.419708 198.521698,437.078156 
	C186.188019,426.075836 177.327515,412.919800 173.434753,396.681641 
	C173.203766,395.718079 173.129288,394.717010 172.999542,392.950317 
	C173.364944,388.578247 175.048630,386.150177 178.502640,384.637054 
	C187.706985,380.604828 196.693466,376.057007 205.989899,372.261200 
	C210.448288,370.440765 215.448151,369.982361 220.119690,368.621796 
	C221.230240,368.298370 222.007355,366.830139 222.937836,365.888458 
z"/>
<path fill="#E1C8D1" opacity="1.000000" stroke="none" 
	d="
M222.526428,365.930634 
	C222.007355,366.830139 221.230240,368.298370 220.119690,368.621796 
	C215.448151,369.982361 210.448288,370.440765 205.989899,372.261200 
	C196.693466,376.057007 187.706985,380.604828 178.502640,384.637054 
	C175.048630,386.150177 173.364944,388.578247 172.993546,392.537964 
	C172.032227,391.501801 171.094513,390.094940 169.842026,388.654266 
	C184.571381,377.439575 201.594055,370.772705 219.717697,366.614380 
	C220.523468,366.429535 221.316208,366.187958 222.526428,365.930634 
z"/>
<path fill="#EDD3D4" opacity="1.000000" stroke="none" 
	d="
M330.928040,390.646790 
	C330.286224,389.497131 329.714569,387.990295 329.201965,386.084656 
	C330.176025,386.193115 331.091064,386.700409 332.149750,387.491425 
	C331.861664,388.613342 331.429901,389.451477 330.928040,390.646790 
z"/>
<path fill="#EDD3D4" opacity="1.000000" stroke="none" 
	d="
M326.405518,406.005249 
	C326.795135,404.517273 327.482513,402.880127 328.462952,401.118927 
	C328.071747,402.615295 327.387512,404.235657 326.405518,406.005249 
z"/>
<path fill="#EDD3D4" opacity="1.000000" stroke="none" 
	d="
M330.163452,394.780640 
	C330.075134,394.370697 330.170990,393.752655 330.485718,393.061401 
	C330.585571,393.516327 330.466583,394.044434 330.163452,394.780640 
z"/>
<path fill="#EDD3D4" opacity="1.000000" stroke="none" 
	d="
M329.145569,398.764191 
	C329.067719,398.354095 329.179474,397.739197 329.512299,397.051086 
	C329.600616,397.505066 329.467896,398.032196 329.145569,398.764191 
z"/>
<path fill="#F3A59E" opacity="1.000000" stroke="none" 
	d="
M278.005249,360.771301 
	C261.302917,369.243835 244.514984,369.160156 227.636734,361.300934 
	C226.593445,360.815155 225.470016,360.501495 224.053101,360.110992 
	C223.574844,359.587494 223.427353,359.060760 223.428940,357.926086 
	C223.499237,356.636780 223.420486,355.955322 223.341736,355.273895 
	C223.287384,354.464630 223.233032,353.655396 223.236725,352.444580 
	C233.001678,354.029572 242.652130,357.168610 252.432861,357.647644 
	C260.644653,358.049835 269.008270,355.351654 277.887390,354.288635 
	C278.315186,356.624542 278.160217,358.697937 278.005249,360.771301 
z"/>
<path fill="#F4A69F" opacity="1.000000" stroke="none" 
	d="
M145.776520,258.993835 
	C144.168198,251.102020 145.350098,246.717041 149.524414,244.300827 
	C151.619690,243.088013 153.282043,242.927017 153.908371,245.892578 
	C156.166794,256.585815 158.465439,267.270599 160.724884,277.963623 
	C160.782776,278.237518 160.563522,278.569977 160.328613,279.366364 
	C152.420319,274.757690 148.287369,267.722534 145.776520,258.993835 
z"/>
<path fill="#F4A69E" opacity="1.000000" stroke="none" 
	d="
M359.618164,265.387451 
	C356.396515,271.281494 352.682373,276.226044 346.063049,280.231079 
	C346.579834,277.842651 346.845184,276.509735 347.157990,275.188019 
	C349.141907,266.805267 351.034363,258.398560 353.199768,250.062790 
	C353.734558,248.004089 355.167572,246.178741 356.187683,244.246124 
	C358.046448,246.135544 361.389923,247.962021 361.473175,249.926682 
	C361.685333,254.931976 360.441162,259.999023 359.618164,265.387451 
z"/>
<path fill="#3A2B4D" opacity="1.000000" stroke="none" 
	d="
M280.054626,365.850250 
	C279.951111,365.143158 279.847595,364.436035 279.823517,362.931030 
	C279.943481,359.091858 279.984070,356.050629 280.024628,353.009369 
	C280.920654,352.596832 281.816711,352.184296 283.306335,351.569183 
	C285.054352,350.658630 286.208740,349.950684 287.363098,349.242737 
	C290.609253,347.446381 293.855408,345.650085 297.443604,343.766388 
	C293.983551,346.380890 290.102234,348.980286 286.414459,351.830139 
	C284.710968,353.146576 282.693665,354.702942 282.017029,356.582031 
	C279.913452,362.423950 280.597992,363.293945 286.545807,365.216675 
	C287.387726,365.488861 288.031738,366.373230 288.492126,367.335022 
	C285.496124,367.080658 282.775391,366.465454 280.054626,365.850250 
z"/>
<path fill="#3A2B4D" opacity="1.000000" stroke="none" 
	d="
M328.313721,312.800354 
	C328.729614,317.167969 326.123718,319.821075 321.977936,321.616028 
	C323.758545,318.709869 325.900024,315.847473 328.313721,312.800354 
z"/>
<path fill="#3A2B4D" opacity="1.000000" stroke="none" 
	d="
M336.534180,299.853333 
	C334.962769,302.950989 333.113159,306.247131 330.915710,309.611237 
	C332.463898,306.470062 334.359955,303.260925 336.534180,299.853333 
z"/>
<path fill="#3A2B4D" opacity="1.000000" stroke="none" 
	d="
M305.318634,337.766968 
	C305.136963,341.906281 301.560120,342.553558 298.088867,343.745972 
	C300.148804,341.786377 302.578552,339.839020 305.318634,337.766968 
z"/>
<path fill="#3A2B4D" opacity="1.000000" stroke="none" 
	d="
M315.061920,328.713196 
	C315.821381,332.099640 313.568024,333.297455 310.293030,333.931824 
	C311.549164,332.251678 313.176239,330.574432 315.061920,328.713196 
z"/>
<path fill="#D1A8B2" opacity="1.000000" stroke="none" 
	d="
M279.748291,353.052612 
	C279.984070,356.050629 279.943481,359.091858 279.788635,362.574432 
	C279.252625,362.401978 278.830933,361.788208 278.207245,360.972839 
	C278.160217,358.697937 278.315186,356.624542 278.279053,354.259155 
	C278.549316,353.676666 279.010620,353.386230 279.748291,353.052612 
z"/>
<path fill="#3A2B4D" opacity="1.000000" stroke="none" 
	d="
M321.307678,321.822327 
	C320.574310,323.041687 319.584930,324.438019 318.242004,325.874634 
	C318.942841,324.609711 319.997223,323.304504 321.307678,321.822327 
z"/>
<path fill="#3A2B4D" opacity="1.000000" stroke="none" 
	d="
M308.604614,334.985779 
	C308.053589,335.830383 307.204254,336.758362 306.000732,337.657379 
	C306.533203,336.775330 307.419769,335.922241 308.604614,334.985779 
z"/>
<path fill="#D1A8B2" opacity="1.000000" stroke="none" 
	d="
M287.001648,349.229919 
	C286.208740,349.950684 285.054352,350.658630 283.557678,351.412384 
	C284.356995,350.711182 285.498566,349.964172 287.001648,349.229919 
z"/>
<path fill="#3A2B4D" opacity="1.000000" stroke="none" 
	d="
M330.342957,309.824982 
	C330.137726,310.604126 329.679108,311.563995 328.874451,312.600098 
	C329.048798,311.786163 329.569214,310.895966 330.342957,309.824982 
z"/>
<path fill="#3A2B4D" opacity="1.000000" stroke="none" 
	d="
M317.634827,325.997009 
	C317.313629,326.725189 316.713074,327.561188 315.774689,328.389740 
	C316.076416,327.623138 316.715942,326.863983 317.634827,325.997009 
z"/>
<path fill="#EDD3D4" opacity="1.000000" stroke="none" 
	d="
M280.144104,366.211609 
	C282.775391,366.465454 285.496124,367.080658 288.593262,367.664490 
	C300.686859,372.504303 312.404053,377.375519 324.345337,382.535461 
	C321.186188,381.696655 317.786163,380.616791 314.423737,379.430420 
	C309.334625,377.634827 304.251251,375.819153 299.202759,373.913177 
	C292.860046,371.518555 286.554932,369.024231 280.144104,366.211609 
z"/>
<path fill="#EDD3D4" opacity="1.000000" stroke="none" 
	d="
M327.514404,384.597412 
	C327.306976,384.681641 326.907776,384.471680 326.285217,384.006866 
	C326.482086,383.935760 326.902344,384.119537 327.514404,384.597412 
z"/>
<path fill="#EDD3D4" opacity="1.000000" stroke="none" 
	d="
M329.199036,385.518311 
	C329.008179,385.621796 328.675690,385.461670 328.154480,385.096405 
	C328.329651,385.012390 328.693542,385.133545 329.199036,385.518311 
z"/>
<path fill="#E1C8D1" opacity="1.000000" stroke="none" 
	d="
M223.670441,363.330353 
	C223.868332,363.631592 223.931320,364.243317 223.802261,364.919678 
	C223.585312,364.536499 223.560410,364.088684 223.670441,363.330353 
z"/>
<path fill="#E1C8D1" opacity="1.000000" stroke="none" 
	d="
M223.269272,355.575684 
	C223.420486,355.955322 223.499237,356.636780 223.492432,357.515839 
	C223.336853,357.101471 223.266830,356.489441 223.269272,355.575684 
z"/>
</svg>